# xmcd
#
# Track frame offsets:
#	150
#	14813
#	32037
#	48396
#	63484
#	78166
#	91648
#	107146
#	124147
#	138738
#	154970
#	172163
#	192954
#	210201
#	222474
#	236820
#	250072
#	267210
#	280949
#	295092
#	315267
#	331051
#
# Disc length: 4595 seconds
#
# Revision: 0
# Processed by: cddbd v1.5.2PL0 Copyright (c) Steve Scherf et al.
# Submitted via: audiograbber 1.83.01
#
DISCID=4111f116
DTITLE=Various Artist - Ultimate Disco Party CD3
DYEAR=1900
DGENRE=Disco
TTITLE0=Gloria Gaynor - I Will Survive
TTITLE1=Donna Summer - Hot Stuff
TTITLE2=Kool and The Gang - Celebration
TTITLE3=Barry White - You're The First, My Last, My Everything
TTITLE4=LaBelle - Lady Marmalade
TTITLE5=Silver Convention - Get Up And Boogie
TTITLE6=Dan Hartman - Instant Replay
TTITLE7=Rose Royce - Is It Love You're After
TTITLE8=Leif Garrett - I Was Made For Dancin'
TTITLE9=Frantique - Strut Your Funky Stuff
TTITLE10=Patrick Juvet - I Love America
TTITLE11=Voyage - From East To West
TTITLE12=Amanda Lear - Follow Me
TTITLE13=Raffaella Carrà - Do It Do It Again
TTITLE14=The Trammps - Disco Inferno
TTITLE15=Yvonne Elliman - If I Can't Have You
TTITLE16=Terri De Sario - Ain't Nothin' Gonna Keep Me From You
TTITLE17=Tina Charles - I Love To Love
TTITLE18=Andrea True Connection - More, More, More
TTITLE19=Sylvester - You Make Me Feel (Mighty Real)
TTITLE20=The Weather Girls - It's Raining Men
TTITLE21=Michael Zager Band - Let's All Chant
EXTD=(P) Sony BMG 2008
EXTT0=
EXTT1=
EXTT2=
EXTT3=
EXTT4=
EXTT5=
EXTT6=
EXTT7=
EXTT8=
EXTT9=
EXTT10=
EXTT11=
EXTT12=
EXTT13=
EXTT14=
EXTT15=
EXTT16=
EXTT17=
EXTT18=
EXTT19=
EXTT20=
EXTT21=
PLAYORDER=
